<?xml version="1.0" encoding="UTF-8" standalone="no"?>
<!DOCTYPE svg PUBLIC "-//W3C//DTD SVG 1.1//EN"
 "http://www.w3.org/Graphics/SVG/1.1/DTD/svg11.dtd">
<!-- Generated by graphviz version 2.43.0 (0)
 -->
<!-- Title: %3 Pages: 1 -->
<svg width="2510pt" height="620pt"
 viewBox="0.00 0.00 2510.00 620.00" xmlns="http://www.w3.org/2000/svg" xmlns:xlink="http://www.w3.org/1999/xlink">
<g id="graph0" class="graph" transform="scale(1 1) rotate(0) translate(4 616)">
<title>%3</title>
<polygon fill="white" stroke="transparent" points="-4,4 -4,-616 2506,-616 2506,4 -4,4"/>
<!-- [root] aws_autoscaling_group.web (expand) -->
<g id="node1" class="node">
<title>[root] aws_autoscaling_group.web (expand)</title>
<polygon fill="none" stroke="black" points="705,-396 490,-396 490,-360 705,-360 705,-396"/>
<text text-anchor="middle" x="597.5" y="-374.3" font-family="Times,serif" font-size="14.00">aws_autoscaling_group.web</text>
</g>
<!-- [root] aws_elb.web_elb (expand) -->
<g id="node4" class="node">
<title>[root] aws_elb.web_elb (expand)</title>
<polygon fill="none" stroke="black" points="860,-324 725,-324 725,-288 860,-288 860,-324"/>
<text text-anchor="middle" x="792.5" y="-302.3" font-family="Times,serif" font-size="14.00">aws_elb.web_elb</text>
</g>
<!-- [root] aws_autoscaling_group.web (expand)&#45;&gt;[root] aws_elb.web_elb (expand) -->
<g id="edge1" class="edge">
<title>[root] aws_autoscaling_group.web (expand)&#45;&gt;[root] aws_elb.web_elb (expand)</title>
<path fill="none" stroke="black" d="M645.2,-359.88C672.45,-350.09 706.8,-337.77 735.47,-327.47"/>
<polygon fill="black" stroke="black" points="736.72,-330.74 744.95,-324.07 734.36,-324.15 736.72,-330.74"/>
</g>
<!-- [root] aws_launch_configuration.web (expand) -->
<g id="node6" class="node">
<title>[root] aws_launch_configuration.web (expand)</title>
<polygon fill="none" stroke="black" points="233,-324 0,-324 0,-288 233,-288 233,-324"/>
<text text-anchor="middle" x="116.5" y="-302.3" font-family="Times,serif" font-size="14.00">aws_launch_configuration.web</text>
</g>
<!-- [root] aws_autoscaling_group.web (expand)&#45;&gt;[root] aws_launch_configuration.web (expand) -->
<g id="edge2" class="edge">
<title>[root] aws_autoscaling_group.web (expand)&#45;&gt;[root] aws_launch_configuration.web (expand)</title>
<path fill="none" stroke="black" d="M489.85,-361.33C416.84,-350.71 320.01,-336.62 243.27,-325.45"/>
<polygon fill="black" stroke="black" points="243.45,-321.94 233.05,-323.96 242.44,-328.87 243.45,-321.94"/>
</g>
<!-- [root] aws_subnet.Privet_subnet_1 (expand) -->
<g id="node19" class="node">
<title>[root] aws_subnet.Privet_subnet_1 (expand)</title>
<polygon fill="none" stroke="black" points="470,-324 251,-324 251,-288 470,-288 470,-324"/>
<text text-anchor="middle" x="360.5" y="-302.3" font-family="Times,serif" font-size="14.00">aws_subnet.Privet_subnet_1</text>
</g>
<!-- [root] aws_autoscaling_group.web (expand)&#45;&gt;[root] aws_subnet.Privet_subnet_1 (expand) -->
<g id="edge3" class="edge">
<title>[root] aws_autoscaling_group.web (expand)&#45;&gt;[root] aws_subnet.Privet_subnet_1 (expand)</title>
<path fill="none" stroke="black" d="M539.83,-359.97C506.14,-350.01 463.45,-337.41 428.17,-326.99"/>
<polygon fill="black" stroke="black" points="429.01,-323.59 418.43,-324.11 427.03,-330.3 429.01,-323.59"/>
</g>
<!-- [root] aws_subnet.Privet_subnet_2 (expand) -->
<g id="node20" class="node">
<title>[root] aws_subnet.Privet_subnet_2 (expand)</title>
<polygon fill="none" stroke="black" points="707,-324 488,-324 488,-288 707,-288 707,-324"/>
<text text-anchor="middle" x="597.5" y="-302.3" font-family="Times,serif" font-size="14.00">aws_subnet.Privet_subnet_2</text>
</g>
<!-- [root] aws_autoscaling_group.web (expand)&#45;&gt;[root] aws_subnet.Privet_subnet_2 (expand) -->
<g id="edge4" class="edge">
<title>[root] aws_autoscaling_group.web (expand)&#45;&gt;[root] aws_subnet.Privet_subnet_2 (expand)</title>
<path fill="none" stroke="black" d="M597.5,-359.7C597.5,-351.98 597.5,-342.71 597.5,-334.11"/>
<polygon fill="black" stroke="black" points="601,-334.1 597.5,-324.1 594,-334.1 601,-334.1"/>
</g>
<!-- [root] aws_eip.Elastic_ip_for_Public_subnet_1 (expand) -->
<g id="node2" class="node">
<title>[root] aws_eip.Elastic_ip_for_Public_subnet_1 (expand)</title>
<polygon fill="none" stroke="black" points="1472.5,-252 1176.5,-252 1176.5,-216 1472.5,-216 1472.5,-252"/>
<text text-anchor="middle" x="1324.5" y="-230.3" font-family="Times,serif" font-size="14.00">aws_eip.Elastic_ip_for_Public_subnet_1</text>
</g>
<!-- [root] aws_internet_gateway.High_availability_gw (expand) -->
<g id="node5" class="node">
<title>[root] aws_internet_gateway.High_availability_gw (expand)</title>
<polygon fill="none" stroke="black" points="1823.5,-180 1497.5,-180 1497.5,-144 1823.5,-144 1823.5,-180"/>
<text text-anchor="middle" x="1660.5" y="-158.3" font-family="Times,serif" font-size="14.00">aws_internet_gateway.High_availability_gw</text>
</g>
<!-- [root] aws_eip.Elastic_ip_for_Public_subnet_1 (expand)&#45;&gt;[root] aws_internet_gateway.High_availability_gw (expand) -->
<g id="edge5" class="edge">
<title>[root] aws_eip.Elastic_ip_for_Public_subnet_1 (expand)&#45;&gt;[root] aws_internet_gateway.High_availability_gw (expand)</title>
<path fill="none" stroke="black" d="M1406.27,-215.97C1455.34,-205.74 1517.89,-192.71 1568.67,-182.13"/>
<polygon fill="black" stroke="black" points="1569.58,-185.52 1578.66,-180.05 1568.16,-178.66 1569.58,-185.52"/>
</g>
<!-- [root] aws_eip.Elastic_ip_for_Public_subnet_2 (expand) -->
<g id="node3" class="node">
<title>[root] aws_eip.Elastic_ip_for_Public_subnet_2 (expand)</title>
<polygon fill="none" stroke="black" points="2144.5,-252 1848.5,-252 1848.5,-216 2144.5,-216 2144.5,-252"/>
<text text-anchor="middle" x="1996.5" y="-230.3" font-family="Times,serif" font-size="14.00">aws_eip.Elastic_ip_for_Public_subnet_2</text>
</g>
<!-- [root] aws_eip.Elastic_ip_for_Public_subnet_2 (expand)&#45;&gt;[root] aws_internet_gateway.High_availability_gw (expand) -->
<g id="edge6" class="edge">
<title>[root] aws_eip.Elastic_ip_for_Public_subnet_2 (expand)&#45;&gt;[root] aws_internet_gateway.High_availability_gw (expand)</title>
<path fill="none" stroke="black" d="M1914.73,-215.97C1865.66,-205.74 1803.11,-192.71 1752.33,-182.13"/>
<polygon fill="black" stroke="black" points="1752.84,-178.66 1742.34,-180.05 1751.42,-185.52 1752.84,-178.66"/>
</g>
<!-- [root] aws_security_group.ELB (expand) -->
<g id="node17" class="node">
<title>[root] aws_security_group.ELB (expand)</title>
<polygon fill="none" stroke="black" points="666.5,-180 474.5,-180 474.5,-144 666.5,-144 666.5,-180"/>
<text text-anchor="middle" x="570.5" y="-158.3" font-family="Times,serif" font-size="14.00">aws_security_group.ELB</text>
</g>
<!-- [root] aws_elb.web_elb (expand)&#45;&gt;[root] aws_security_group.ELB (expand) -->
<g id="edge7" class="edge">
<title>[root] aws_elb.web_elb (expand)&#45;&gt;[root] aws_security_group.ELB (expand)</title>
<path fill="none" stroke="black" d="M756.71,-287.88C737.06,-278.07 712.49,-265.12 691.5,-252 658.86,-231.6 623.64,-205.14 599.66,-186.38"/>
<polygon fill="black" stroke="black" points="601.69,-183.53 591.67,-180.1 597.36,-189.03 601.69,-183.53"/>
</g>
<!-- [root] aws_subnet.Public_subnet_1 (expand) -->
<g id="node21" class="node">
<title>[root] aws_subnet.Public_subnet_1 (expand)</title>
<polygon fill="none" stroke="black" points="920.5,-252 700.5,-252 700.5,-216 920.5,-216 920.5,-252"/>
<text text-anchor="middle" x="810.5" y="-230.3" font-family="Times,serif" font-size="14.00">aws_subnet.Public_subnet_1</text>
</g>
<!-- [root] aws_elb.web_elb (expand)&#45;&gt;[root] aws_subnet.Public_subnet_1 (expand) -->
<g id="edge8" class="edge">
<title>[root] aws_elb.web_elb (expand)&#45;&gt;[root] aws_subnet.Public_subnet_1 (expand)</title>
<path fill="none" stroke="black" d="M796.95,-287.7C798.95,-279.9 801.37,-270.51 803.6,-261.83"/>
<polygon fill="black" stroke="black" points="807,-262.66 806.1,-252.1 800.22,-260.92 807,-262.66"/>
</g>
<!-- [root] aws_subnet.Public_subnet_2 (expand) -->
<g id="node22" class="node">
<title>[root] aws_subnet.Public_subnet_2 (expand)</title>
<polygon fill="none" stroke="black" points="1158.5,-252 938.5,-252 938.5,-216 1158.5,-216 1158.5,-252"/>
<text text-anchor="middle" x="1048.5" y="-230.3" font-family="Times,serif" font-size="14.00">aws_subnet.Public_subnet_2</text>
</g>
<!-- [root] aws_elb.web_elb (expand)&#45;&gt;[root] aws_subnet.Public_subnet_2 (expand) -->
<g id="edge9" class="edge">
<title>[root] aws_elb.web_elb (expand)&#45;&gt;[root] aws_subnet.Public_subnet_2 (expand)</title>
<path fill="none" stroke="black" d="M854.8,-287.97C891.34,-277.97 937.69,-265.3 975.89,-254.85"/>
<polygon fill="black" stroke="black" points="977.2,-258.12 985.92,-252.11 975.35,-251.37 977.2,-258.12"/>
</g>
<!-- [root] aws_vpc.High_availability_vpc (expand) -->
<g id="node23" class="node">
<title>[root] aws_vpc.High_availability_vpc (expand)</title>
<polygon fill="none" stroke="black" points="686.5,-108 454.5,-108 454.5,-72 686.5,-72 686.5,-108"/>
<text text-anchor="middle" x="570.5" y="-86.3" font-family="Times,serif" font-size="14.00">aws_vpc.High_availability_vpc</text>
</g>
<!-- [root] aws_internet_gateway.High_availability_gw (expand)&#45;&gt;[root] aws_vpc.High_availability_vpc (expand) -->
<g id="edge10" class="edge">
<title>[root] aws_internet_gateway.High_availability_gw (expand)&#45;&gt;[root] aws_vpc.High_availability_vpc (expand)</title>
<path fill="none" stroke="black" d="M1497.32,-150.52C1278.56,-136.47 894.87,-111.83 696.78,-99.11"/>
<polygon fill="black" stroke="black" points="696.82,-95.61 686.62,-98.46 696.37,-102.59 696.82,-95.61"/>
</g>
<!-- [root] aws_security_group.allow_web (expand) -->
<g id="node18" class="node">
<title>[root] aws_security_group.allow_web (expand)</title>
<polygon fill="none" stroke="black" points="237.5,-180 1.5,-180 1.5,-144 237.5,-144 237.5,-180"/>
<text text-anchor="middle" x="119.5" y="-158.3" font-family="Times,serif" font-size="14.00">aws_security_group.allow_web</text>
</g>
<!-- [root] aws_launch_configuration.web (expand)&#45;&gt;[root] aws_security_group.allow_web (expand) -->
<g id="edge11" class="edge">
<title>[root] aws_launch_configuration.web (expand)&#45;&gt;[root] aws_security_group.allow_web (expand)</title>
<path fill="none" stroke="black" d="M116.86,-287.87C117.37,-263.67 118.31,-219.21 118.92,-190.39"/>
<polygon fill="black" stroke="black" points="122.42,-190.26 119.14,-180.19 115.43,-190.11 122.42,-190.26"/>
</g>
<!-- [root] aws_nat_gateway.Nat_gateway_public_subnet_1 (expand) -->
<g id="node7" class="node">
<title>[root] aws_nat_gateway.Nat_gateway_public_subnet_1 (expand)</title>
<polygon fill="none" stroke="black" points="1236.5,-324 878.5,-324 878.5,-288 1236.5,-288 1236.5,-324"/>
<text text-anchor="middle" x="1057.5" y="-302.3" font-family="Times,serif" font-size="14.00">aws_nat_gateway.Nat_gateway_public_subnet_1</text>
</g>
<!-- [root] aws_nat_gateway.Nat_gateway_public_subnet_1 (expand)&#45;&gt;[root] aws_eip.Elastic_ip_for_Public_subnet_1 (expand) -->
<g id="edge12" class="edge">
<title>[root] aws_nat_gateway.Nat_gateway_public_subnet_1 (expand)&#45;&gt;[root] aws_eip.Elastic_ip_for_Public_subnet_1 (expand)</title>
<path fill="none" stroke="black" d="M1122.47,-287.97C1160.83,-277.91 1209.55,-265.14 1249.53,-254.65"/>
<polygon fill="black" stroke="black" points="1250.45,-258.03 1259.23,-252.11 1248.67,-251.26 1250.45,-258.03"/>
</g>
<!-- [root] aws_nat_gateway.Nat_gateway_public_subnet_1 (expand)&#45;&gt;[root] aws_subnet.Public_subnet_1 (expand) -->
<g id="edge13" class="edge">
<title>[root] aws_nat_gateway.Nat_gateway_public_subnet_1 (expand)&#45;&gt;[root] aws_subnet.Public_subnet_1 (expand)</title>
<path fill="none" stroke="black" d="M997.39,-287.97C962.13,-277.97 917.41,-265.3 880.56,-254.85"/>
<polygon fill="black" stroke="black" points="881.45,-251.47 870.88,-252.11 879.54,-258.2 881.45,-251.47"/>
</g>
<!-- [root] aws_nat_gateway.Nat_gateway_public_subnet_2 (expand) -->
<g id="node8" class="node">
<title>[root] aws_nat_gateway.Nat_gateway_public_subnet_2 (expand)</title>
<polygon fill="none" stroke="black" points="2014.5,-324 1656.5,-324 1656.5,-288 2014.5,-288 2014.5,-324"/>
<text text-anchor="middle" x="1835.5" y="-302.3" font-family="Times,serif" font-size="14.00">aws_nat_gateway.Nat_gateway_public_subnet_2</text>
</g>
<!-- [root] aws_nat_gateway.Nat_gateway_public_subnet_2 (expand)&#45;&gt;[root] aws_eip.Elastic_ip_for_Public_subnet_2 (expand) -->
<g id="edge14" class="edge">
<title>[root] aws_nat_gateway.Nat_gateway_public_subnet_2 (expand)&#45;&gt;[root] aws_eip.Elastic_ip_for_Public_subnet_2 (expand)</title>
<path fill="none" stroke="black" d="M1874.89,-287.88C1896.89,-278.31 1924.51,-266.3 1947.86,-256.15"/>
<polygon fill="black" stroke="black" points="1949.47,-259.27 1957.24,-252.07 1946.68,-252.85 1949.47,-259.27"/>
</g>
<!-- [root] aws_nat_gateway.Nat_gateway_public_subnet_2 (expand)&#45;&gt;[root] aws_subnet.Public_subnet_2 (expand) -->
<g id="edge15" class="edge">
<title>[root] aws_nat_gateway.Nat_gateway_public_subnet_2 (expand)&#45;&gt;[root] aws_subnet.Public_subnet_2 (expand)</title>
<path fill="none" stroke="black" d="M1656.39,-288.74C1653.4,-288.49 1650.44,-288.24 1647.5,-288 1437.52,-270.63 1381.85,-275 1168.63,-252.08"/>
<polygon fill="black" stroke="black" points="1169,-248.6 1158.68,-251.01 1168.25,-255.56 1169,-248.6"/>
</g>
<!-- [root] aws_route_table.route_table_privet_subnet_1 (expand) -->
<g id="node9" class="node">
<title>[root] aws_route_table.route_table_privet_subnet_1 (expand)</title>
<polygon fill="none" stroke="black" points="1207.5,-396 869.5,-396 869.5,-360 1207.5,-360 1207.5,-396"/>
<text text-anchor="middle" x="1038.5" y="-374.3" font-family="Times,serif" font-size="14.00">aws_route_table.route_table_privet_subnet_1</text>
</g>
<!-- [root] aws_route_table.route_table_privet_subnet_1 (expand)&#45;&gt;[root] aws_nat_gateway.Nat_gateway_public_subnet_1 (expand) -->
<g id="edge16" class="edge">
<title>[root] aws_route_table.route_table_privet_subnet_1 (expand)&#45;&gt;[root] aws_nat_gateway.Nat_gateway_public_subnet_1 (expand)</title>
<path fill="none" stroke="black" d="M1043.2,-359.7C1045.31,-351.9 1047.86,-342.51 1050.22,-333.83"/>
<polygon fill="black" stroke="black" points="1053.62,-334.67 1052.86,-324.1 1046.86,-332.84 1053.62,-334.67"/>
</g>
<!-- [root] aws_route_table.route_table_privet_subnet_2 (expand) -->
<g id="node10" class="node">
<title>[root] aws_route_table.route_table_privet_subnet_2 (expand)</title>
<polygon fill="none" stroke="black" points="1575.5,-396 1237.5,-396 1237.5,-360 1575.5,-360 1575.5,-396"/>
<text text-anchor="middle" x="1406.5" y="-374.3" font-family="Times,serif" font-size="14.00">aws_route_table.route_table_privet_subnet_2</text>
</g>
<!-- [root] aws_route_table.route_table_privet_subnet_2 (expand)&#45;&gt;[root] aws_nat_gateway.Nat_gateway_public_subnet_2 (expand) -->
<g id="edge17" class="edge">
<title>[root] aws_route_table.route_table_privet_subnet_2 (expand)&#45;&gt;[root] aws_nat_gateway.Nat_gateway_public_subnet_2 (expand)</title>
<path fill="none" stroke="black" d="M1510.9,-359.97C1574.47,-349.59 1655.76,-336.33 1721.08,-325.67"/>
<polygon fill="black" stroke="black" points="1721.7,-329.11 1731.01,-324.05 1720.57,-322.21 1721.7,-329.11"/>
</g>
<!-- [root] aws_route_table.route_table_public_subnet_1 (expand) -->
<g id="node11" class="node">
<title>[root] aws_route_table.route_table_public_subnet_1 (expand)</title>
<polygon fill="none" stroke="black" points="1830,-252 1491,-252 1491,-216 1830,-216 1830,-252"/>
<text text-anchor="middle" x="1660.5" y="-230.3" font-family="Times,serif" font-size="14.00">aws_route_table.route_table_public_subnet_1</text>
</g>
<!-- [root] aws_route_table.route_table_public_subnet_1 (expand)&#45;&gt;[root] aws_internet_gateway.High_availability_gw (expand) -->
<g id="edge18" class="edge">
<title>[root] aws_route_table.route_table_public_subnet_1 (expand)&#45;&gt;[root] aws_internet_gateway.High_availability_gw (expand)</title>
<path fill="none" stroke="black" d="M1660.5,-215.7C1660.5,-207.98 1660.5,-198.71 1660.5,-190.11"/>
<polygon fill="black" stroke="black" points="1664,-190.1 1660.5,-180.1 1657,-190.1 1664,-190.1"/>
</g>
<!-- [root] aws_route_table.route_table_public_subnet_2 (expand) -->
<g id="node12" class="node">
<title>[root] aws_route_table.route_table_public_subnet_2 (expand)</title>
<polygon fill="none" stroke="black" points="2502,-252 2163,-252 2163,-216 2502,-216 2502,-252"/>
<text text-anchor="middle" x="2332.5" y="-230.3" font-family="Times,serif" font-size="14.00">aws_route_table.route_table_public_subnet_2</text>
</g>
<!-- [root] aws_route_table.route_table_public_subnet_2 (expand)&#45;&gt;[root] aws_internet_gateway.High_availability_gw (expand) -->
<g id="edge19" class="edge">
<title>[root] aws_route_table.route_table_public_subnet_2 (expand)&#45;&gt;[root] aws_internet_gateway.High_availability_gw (expand)</title>
<path fill="none" stroke="black" d="M2168.97,-215.97C2067.45,-205.39 1937.12,-191.81 1833.83,-181.05"/>
<polygon fill="black" stroke="black" points="1833.91,-177.54 1823.6,-179.99 1833.18,-184.51 1833.91,-177.54"/>
</g>
<!-- [root] aws_route_table_association.privet_route_subnet_1 (expand) -->
<g id="node13" class="node">
<title>[root] aws_route_table_association.privet_route_subnet_1 (expand)</title>
<polygon fill="none" stroke="black" points="1181.5,-468 799.5,-468 799.5,-432 1181.5,-432 1181.5,-468"/>
<text text-anchor="middle" x="990.5" y="-446.3" font-family="Times,serif" font-size="14.00">aws_route_table_association.privet_route_subnet_1</text>
</g>
<!-- [root] aws_route_table_association.privet_route_subnet_1 (expand)&#45;&gt;[root] aws_route_table.route_table_privet_subnet_1 (expand) -->
<g id="edge20" class="edge">
<title>[root] aws_route_table_association.privet_route_subnet_1 (expand)&#45;&gt;[root] aws_route_table.route_table_privet_subnet_1 (expand)</title>
<path fill="none" stroke="black" d="M1002.37,-431.7C1008,-423.47 1014.85,-413.48 1021.07,-404.42"/>
<polygon fill="black" stroke="black" points="1024,-406.33 1026.77,-396.1 1018.23,-402.37 1024,-406.33"/>
</g>
<!-- [root] aws_route_table_association.privet_route_subnet_1 (expand)&#45;&gt;[root] aws_subnet.Privet_subnet_1 (expand) -->
<g id="edge21" class="edge">
<title>[root] aws_route_table_association.privet_route_subnet_1 (expand)&#45;&gt;[root] aws_subnet.Privet_subnet_1 (expand)</title>
<path fill="none" stroke="black" d="M934.49,-431.93C901.29,-421.71 858.42,-408.35 820.5,-396 773.19,-380.59 762.85,-371.73 714.5,-360 702.93,-357.19 578.37,-338.76 480.24,-324.41"/>
<polygon fill="black" stroke="black" points="480.63,-320.93 470.23,-322.94 479.62,-327.85 480.63,-320.93"/>
</g>
<!-- [root] aws_route_table_association.privet_route_subnet_2 (expand) -->
<g id="node14" class="node">
<title>[root] aws_route_table_association.privet_route_subnet_2 (expand)</title>
<polygon fill="none" stroke="black" points="1581.5,-468 1199.5,-468 1199.5,-432 1581.5,-432 1581.5,-468"/>
<text text-anchor="middle" x="1390.5" y="-446.3" font-family="Times,serif" font-size="14.00">aws_route_table_association.privet_route_subnet_2</text>
</g>
<!-- [root] aws_route_table_association.privet_route_subnet_2 (expand)&#45;&gt;[root] aws_route_table.route_table_privet_subnet_2 (expand) -->
<g id="edge22" class="edge">
<title>[root] aws_route_table_association.privet_route_subnet_2 (expand)&#45;&gt;[root] aws_route_table.route_table_privet_subnet_2 (expand)</title>
<path fill="none" stroke="black" d="M1394.46,-431.7C1396.22,-423.98 1398.34,-414.71 1400.3,-406.11"/>
<polygon fill="black" stroke="black" points="1403.77,-406.63 1402.59,-396.1 1396.95,-405.07 1403.77,-406.63"/>
</g>
<!-- [root] aws_route_table_association.privet_route_subnet_2 (expand)&#45;&gt;[root] aws_subnet.Privet_subnet_2 (expand) -->
<g id="edge23" class="edge">
<title>[root] aws_route_table_association.privet_route_subnet_2 (expand)&#45;&gt;[root] aws_subnet.Privet_subnet_2 (expand)</title>
<path fill="none" stroke="black" d="M1206.11,-432C1059.92,-418.29 877.41,-400.56 860.5,-396 823.25,-385.95 817.69,-373.38 781.5,-360 747.31,-347.36 708.65,-335.83 675.62,-326.77"/>
<polygon fill="black" stroke="black" points="676.13,-323.28 665.56,-324.04 674.3,-330.04 676.13,-323.28"/>
</g>
<!-- [root] aws_route_table_association.public_route_subnet_1 (expand) -->
<g id="node15" class="node">
<title>[root] aws_route_table_association.public_route_subnet_1 (expand)</title>
<polygon fill="none" stroke="black" points="1638,-324 1255,-324 1255,-288 1638,-288 1638,-324"/>
<text text-anchor="middle" x="1446.5" y="-302.3" font-family="Times,serif" font-size="14.00">aws_route_table_association.public_route_subnet_1</text>
</g>
<!-- [root] aws_route_table_association.public_route_subnet_1 (expand)&#45;&gt;[root] aws_route_table.route_table_public_subnet_1 (expand) -->
<g id="edge24" class="edge">
<title>[root] aws_route_table_association.public_route_subnet_1 (expand)&#45;&gt;[root] aws_route_table.route_table_public_subnet_1 (expand)</title>
<path fill="none" stroke="black" d="M1498.58,-287.97C1528.74,-278.1 1566.89,-265.62 1598.58,-255.25"/>
<polygon fill="black" stroke="black" points="1599.77,-258.55 1608.19,-252.11 1597.6,-251.89 1599.77,-258.55"/>
</g>
<!-- [root] aws_route_table_association.public_route_subnet_1 (expand)&#45;&gt;[root] aws_subnet.Public_subnet_1 (expand) -->
<g id="edge25" class="edge">
<title>[root] aws_route_table_association.public_route_subnet_1 (expand)&#45;&gt;[root] aws_subnet.Public_subnet_1 (expand)</title>
<path fill="none" stroke="black" d="M1262.96,-287.97C1166.86,-278.62 1047,-266.27 930.84,-252.14"/>
<polygon fill="black" stroke="black" points="931.05,-248.64 920.7,-250.9 930.2,-255.59 931.05,-248.64"/>
</g>
<!-- [root] aws_route_table_association.public_route_subnet_2 (expand) -->
<g id="node16" class="node">
<title>[root] aws_route_table_association.public_route_subnet_2 (expand)</title>
<polygon fill="none" stroke="black" points="2416,-324 2033,-324 2033,-288 2416,-288 2416,-324"/>
<text text-anchor="middle" x="2224.5" y="-302.3" font-family="Times,serif" font-size="14.00">aws_route_table_association.public_route_subnet_2</text>
</g>
<!-- [root] aws_route_table_association.public_route_subnet_2 (expand)&#45;&gt;[root] aws_route_table.route_table_public_subnet_2 (expand) -->
<g id="edge26" class="edge">
<title>[root] aws_route_table_association.public_route_subnet_2 (expand)&#45;&gt;[root] aws_route_table.route_table_public_subnet_2 (expand)</title>
<path fill="none" stroke="black" d="M2250.92,-287.88C2264.91,-278.81 2282.28,-267.55 2297.39,-257.76"/>
<polygon fill="black" stroke="black" points="2299.49,-260.57 2305.98,-252.19 2295.68,-254.69 2299.49,-260.57"/>
</g>
<!-- [root] aws_route_table_association.public_route_subnet_2 (expand)&#45;&gt;[root] aws_subnet.Public_subnet_2 (expand) -->
<g id="edge27" class="edge">
<title>[root] aws_route_table_association.public_route_subnet_2 (expand)&#45;&gt;[root] aws_subnet.Public_subnet_2 (expand)</title>
<path fill="none" stroke="black" d="M2032.75,-288.6C2029.64,-288.39 2026.56,-288.19 2023.5,-288 1646.82,-264.16 1548.4,-286.57 1168.84,-252.07"/>
<polygon fill="black" stroke="black" points="1168.95,-248.56 1158.67,-251.13 1168.31,-255.53 1168.95,-248.56"/>
</g>
<!-- [root] aws_security_group.ELB (expand)&#45;&gt;[root] aws_vpc.High_availability_vpc (expand) -->
<g id="edge28" class="edge">
<title>[root] aws_security_group.ELB (expand)&#45;&gt;[root] aws_vpc.High_availability_vpc (expand)</title>
<path fill="none" stroke="black" d="M570.5,-143.7C570.5,-135.98 570.5,-126.71 570.5,-118.11"/>
<polygon fill="black" stroke="black" points="574,-118.1 570.5,-108.1 567,-118.1 574,-118.1"/>
</g>
<!-- [root] aws_security_group.allow_web (expand)&#45;&gt;[root] aws_vpc.High_availability_vpc (expand) -->
<g id="edge29" class="edge">
<title>[root] aws_security_group.allow_web (expand)&#45;&gt;[root] aws_vpc.High_availability_vpc (expand)</title>
<path fill="none" stroke="black" d="M229.25,-143.97C296.23,-133.57 381.89,-120.27 450.63,-109.6"/>
<polygon fill="black" stroke="black" points="451.3,-113.04 460.65,-108.05 450.23,-106.13 451.3,-113.04"/>
</g>
<!-- [root] aws_subnet.Privet_subnet_1 (expand)&#45;&gt;[root] aws_vpc.High_availability_vpc (expand) -->
<g id="edge30" class="edge">
<title>[root] aws_subnet.Privet_subnet_1 (expand)&#45;&gt;[root] aws_vpc.High_availability_vpc (expand)</title>
<path fill="none" stroke="black" d="M338.35,-287.87C328.09,-278.52 316.98,-266 311.5,-252 305.67,-237.1 303.11,-229.62 311.5,-216 346.16,-159.74 414.2,-128.25 471.85,-110.94"/>
<polygon fill="black" stroke="black" points="473.11,-114.22 481.74,-108.08 471.16,-107.5 473.11,-114.22"/>
</g>
<!-- [root] var.Privet_subnets_cidr_blocks -->
<g id="node25" class="node">
<title>[root] var.Privet_subnets_cidr_blocks</title>
<polygon fill="none" stroke="black" points="562.5,-252 332.5,-252 332.5,-216 568.5,-216 568.5,-246 562.5,-252"/>
<polyline fill="none" stroke="black" points="562.5,-252 562.5,-246 "/>
<polyline fill="none" stroke="black" points="568.5,-246 562.5,-246 "/>
<text text-anchor="middle" x="450.5" y="-230.3" font-family="Times,serif" font-size="14.00">var.Privet_subnets_cidr_blocks</text>
</g>
<!-- [root] aws_subnet.Privet_subnet_1 (expand)&#45;&gt;[root] var.Privet_subnets_cidr_blocks -->
<g id="edge31" class="edge">
<title>[root] aws_subnet.Privet_subnet_1 (expand)&#45;&gt;[root] var.Privet_subnets_cidr_blocks</title>
<path fill="none" stroke="black" d="M382.75,-287.7C394.08,-278.88 408.03,-268.03 420.32,-258.47"/>
<polygon fill="black" stroke="black" points="422.76,-261.01 428.51,-252.1 418.47,-255.48 422.76,-261.01"/>
</g>
<!-- [root] var.east_Availability_Zones -->
<g id="node26" class="node">
<title>[root] var.east_Availability_Zones</title>
<polygon fill="none" stroke="black" points="888,-180 685,-180 685,-144 894,-144 894,-174 888,-180"/>
<polyline fill="none" stroke="black" points="888,-180 888,-174 "/>
<polyline fill="none" stroke="black" points="894,-174 888,-174 "/>
<text text-anchor="middle" x="789.5" y="-158.3" font-family="Times,serif" font-size="14.00">var.east_Availability_Zones</text>
</g>
<!-- [root] aws_subnet.Privet_subnet_1 (expand)&#45;&gt;[root] var.east_Availability_Zones -->
<g id="edge32" class="edge">
<title>[root] aws_subnet.Privet_subnet_1 (expand)&#45;&gt;[root] var.east_Availability_Zones</title>
<path fill="none" stroke="black" d="M343.4,-287.73C326.22,-268.3 304.77,-236.74 323.5,-216 348.41,-188.42 605.92,-185.19 674.86,-179.77"/>
<polygon fill="black" stroke="black" points="675.24,-183.25 684.85,-178.8 674.56,-176.28 675.24,-183.25"/>
</g>
<!-- [root] aws_subnet.Privet_subnet_2 (expand)&#45;&gt;[root] aws_vpc.High_availability_vpc (expand) -->
<g id="edge33" class="edge">
<title>[root] aws_subnet.Privet_subnet_2 (expand)&#45;&gt;[root] aws_vpc.High_availability_vpc (expand)</title>
<path fill="none" stroke="black" d="M598.4,-287.99C598.49,-268.22 595.56,-235.76 577.5,-216 542.23,-177.4 496.3,-222.25 465.5,-180 456.07,-167.07 457.11,-157.63 465.5,-144 473.8,-130.52 486.7,-120.34 500.65,-112.71"/>
<polygon fill="black" stroke="black" points="502.57,-115.66 509.94,-108.04 499.43,-109.4 502.57,-115.66"/>
</g>
<!-- [root] aws_subnet.Privet_subnet_2 (expand)&#45;&gt;[root] var.Privet_subnets_cidr_blocks -->
<g id="edge34" class="edge">
<title>[root] aws_subnet.Privet_subnet_2 (expand)&#45;&gt;[root] var.Privet_subnets_cidr_blocks</title>
<path fill="none" stroke="black" d="M561.54,-287.88C541.62,-278.39 516.68,-266.51 495.48,-256.42"/>
<polygon fill="black" stroke="black" points="496.88,-253.21 486.34,-252.07 493.87,-259.53 496.88,-253.21"/>
</g>
<!-- [root] aws_subnet.Privet_subnet_2 (expand)&#45;&gt;[root] var.east_Availability_Zones -->
<g id="edge35" class="edge">
<title>[root] aws_subnet.Privet_subnet_2 (expand)&#45;&gt;[root] var.east_Availability_Zones</title>
<path fill="none" stroke="black" d="M612.98,-287.85C630.73,-268.81 661.29,-237.89 691.5,-216 707.49,-204.41 726.32,-193.64 743.17,-184.87"/>
<polygon fill="black" stroke="black" points="744.98,-187.88 752.3,-180.22 741.8,-181.64 744.98,-187.88"/>
</g>
<!-- [root] aws_subnet.Public_subnet_1 (expand)&#45;&gt;[root] aws_vpc.High_availability_vpc (expand) -->
<g id="edge36" class="edge">
<title>[root] aws_subnet.Public_subnet_1 (expand)&#45;&gt;[root] aws_vpc.High_availability_vpc (expand)</title>
<path fill="none" stroke="black" d="M861.61,-215.84C877.93,-207.67 894.16,-196.07 903.5,-180 911.54,-166.17 913.89,-156.17 903.5,-144 876.84,-112.76 779.39,-99.85 696.74,-94.55"/>
<polygon fill="black" stroke="black" points="696.94,-91.06 686.74,-93.94 696.51,-98.04 696.94,-91.06"/>
</g>
<!-- [root] aws_subnet.Public_subnet_1 (expand)&#45;&gt;[root] var.east_Availability_Zones -->
<g id="edge37" class="edge">
<title>[root] aws_subnet.Public_subnet_1 (expand)&#45;&gt;[root] var.east_Availability_Zones</title>
<path fill="none" stroke="black" d="M805.31,-215.7C802.97,-207.9 800.15,-198.51 797.55,-189.83"/>
<polygon fill="black" stroke="black" points="800.86,-188.68 794.63,-180.1 794.15,-190.69 800.86,-188.68"/>
</g>
<!-- [root] var.public_subnets_cidr_blocks -->
<g id="node27" class="node">
<title>[root] var.public_subnets_cidr_blocks</title>
<polygon fill="none" stroke="black" points="1180.5,-180 950.5,-180 950.5,-144 1186.5,-144 1186.5,-174 1180.5,-180"/>
<polyline fill="none" stroke="black" points="1180.5,-180 1180.5,-174 "/>
<polyline fill="none" stroke="black" points="1186.5,-174 1180.5,-174 "/>
<text text-anchor="middle" x="1068.5" y="-158.3" font-family="Times,serif" font-size="14.00">var.public_subnets_cidr_blocks</text>
</g>
<!-- [root] aws_subnet.Public_subnet_1 (expand)&#45;&gt;[root] var.public_subnets_cidr_blocks -->
<g id="edge38" class="edge">
<title>[root] aws_subnet.Public_subnet_1 (expand)&#45;&gt;[root] var.public_subnets_cidr_blocks</title>
<path fill="none" stroke="black" d="M873.28,-215.97C910.12,-205.97 956.83,-193.3 995.32,-182.85"/>
<polygon fill="black" stroke="black" points="996.7,-186.11 1005.43,-180.11 994.87,-179.35 996.7,-186.11"/>
</g>
<!-- [root] aws_subnet.Public_subnet_2 (expand)&#45;&gt;[root] aws_vpc.High_availability_vpc (expand) -->
<g id="edge39" class="edge">
<title>[root] aws_subnet.Public_subnet_2 (expand)&#45;&gt;[root] aws_vpc.High_availability_vpc (expand)</title>
<path fill="none" stroke="black" d="M1121.64,-215.98C1172.12,-200.93 1225.22,-176.35 1195.5,-144 1162.52,-108.1 869.91,-96.49 697,-92.76"/>
<polygon fill="black" stroke="black" points="696.88,-89.25 686.81,-92.54 696.74,-96.25 696.88,-89.25"/>
</g>
<!-- [root] aws_subnet.Public_subnet_2 (expand)&#45;&gt;[root] var.east_Availability_Zones -->
<g id="edge40" class="edge">
<title>[root] aws_subnet.Public_subnet_2 (expand)&#45;&gt;[root] var.east_Availability_Zones</title>
<path fill="none" stroke="black" d="M985.47,-215.97C948.34,-205.93 901.2,-193.19 862.47,-182.72"/>
<polygon fill="black" stroke="black" points="863.38,-179.34 852.81,-180.11 861.55,-186.1 863.38,-179.34"/>
</g>
<!-- [root] aws_subnet.Public_subnet_2 (expand)&#45;&gt;[root] var.public_subnets_cidr_blocks -->
<g id="edge41" class="edge">
<title>[root] aws_subnet.Public_subnet_2 (expand)&#45;&gt;[root] var.public_subnets_cidr_blocks</title>
<path fill="none" stroke="black" d="M1053.44,-215.7C1055.67,-207.9 1058.35,-198.51 1060.83,-189.83"/>
<polygon fill="black" stroke="black" points="1064.23,-190.68 1063.61,-180.1 1057.5,-188.76 1064.23,-190.68"/>
</g>
<!-- [root] provider[&quot;registry.terraform.io/hashicorp/aws&quot;] -->
<g id="node24" class="node">
<title>[root] provider[&quot;registry.terraform.io/hashicorp/aws&quot;]</title>
<polygon fill="none" stroke="black" points="362.5,-36 37.24,-18 362.5,0 687.76,-18 362.5,-36"/>
<text text-anchor="middle" x="362.5" y="-14.3" font-family="Times,serif" font-size="14.00">provider[&quot;registry.terraform.io/hashicorp/aws&quot;]</text>
</g>
<!-- [root] aws_vpc.High_availability_vpc (expand)&#45;&gt;[root] provider[&quot;registry.terraform.io/hashicorp/aws&quot;] -->
<g id="edge42" class="edge">
<title>[root] aws_vpc.High_availability_vpc (expand)&#45;&gt;[root] provider[&quot;registry.terraform.io/hashicorp/aws&quot;]</title>
<path fill="none" stroke="black" d="M519.88,-71.97C488.28,-61.33 447.65,-47.66 415.59,-36.87"/>
<polygon fill="black" stroke="black" points="416.53,-33.49 405.94,-33.62 414.3,-40.13 416.53,-33.49"/>
</g>
<!-- [root] var.vpc_cidr_block -->
<g id="node28" class="node">
<title>[root] var.vpc_cidr_block</title>
<polygon fill="none" stroke="black" points="845.5,-36 705.5,-36 705.5,0 851.5,0 851.5,-30 845.5,-36"/>
<polyline fill="none" stroke="black" points="845.5,-36 845.5,-30 "/>
<polyline fill="none" stroke="black" points="851.5,-30 845.5,-30 "/>
<text text-anchor="middle" x="778.5" y="-14.3" font-family="Times,serif" font-size="14.00">var.vpc_cidr_block</text>
</g>
<!-- [root] aws_vpc.High_availability_vpc (expand)&#45;&gt;[root] var.vpc_cidr_block -->
<g id="edge43" class="edge">
<title>[root] aws_vpc.High_availability_vpc (expand)&#45;&gt;[root] var.vpc_cidr_block</title>
<path fill="none" stroke="black" d="M621.12,-71.97C650.31,-62.14 687.19,-49.73 717.92,-39.39"/>
<polygon fill="black" stroke="black" points="719.3,-42.62 727.66,-36.11 717.06,-35.98 719.3,-42.62"/>
</g>
<!-- [root] output.LB_IP (expand) -->
<g id="node29" class="node">
<title>[root] output.LB_IP (expand)</title>
<ellipse fill="none" stroke="black" cx="854.5" cy="-522" rx="143.77" ry="18"/>
<text text-anchor="middle" x="854.5" y="-518.3" font-family="Times,serif" font-size="14.00">[root] output.LB_IP (expand)</text>
</g>
<!-- [root] output.LB_IP (expand)&#45;&gt;[root] aws_elb.web_elb (expand) -->
<g id="edge44" class="edge">
<title>[root] output.LB_IP (expand)&#45;&gt;[root] aws_elb.web_elb (expand)</title>
<path fill="none" stroke="black" d="M824.4,-504.37C811.43,-495.45 797.62,-483.14 790.5,-468 770.11,-424.63 777.92,-367.14 785.31,-333.9"/>
<polygon fill="black" stroke="black" points="788.76,-334.54 787.66,-324 781.95,-332.92 788.76,-334.54"/>
</g>
<!-- [root] provider[&quot;registry.terraform.io/hashicorp/aws&quot;] (close) -->
<g id="node30" class="node">
<title>[root] provider[&quot;registry.terraform.io/hashicorp/aws&quot;] (close)</title>
<ellipse fill="none" stroke="black" cx="1348.5" cy="-522" rx="291.65" ry="18"/>
<text text-anchor="middle" x="1348.5" y="-518.3" font-family="Times,serif" font-size="14.00">[root] provider[&quot;registry.terraform.io/hashicorp/aws&quot;] (close)</text>
</g>
<!-- [root] provider[&quot;registry.terraform.io/hashicorp/aws&quot;] (close)&#45;&gt;[root] aws_autoscaling_group.web (expand) -->
<g id="edge45" class="edge">
<title>[root] provider[&quot;registry.terraform.io/hashicorp/aws&quot;] (close)&#45;&gt;[root] aws_autoscaling_group.web (expand)</title>
<path fill="none" stroke="black" d="M1146.65,-508.97C1014.98,-499.75 855.86,-485.62 790.5,-468 734.01,-452.77 673.46,-422.26 635.54,-401.24"/>
<polygon fill="black" stroke="black" points="636.84,-397.96 626.41,-396.12 633.42,-404.07 636.84,-397.96"/>
</g>
<!-- [root] provider[&quot;registry.terraform.io/hashicorp/aws&quot;] (close)&#45;&gt;[root] aws_route_table_association.privet_route_subnet_1 (expand) -->
<g id="edge46" class="edge">
<title>[root] provider[&quot;registry.terraform.io/hashicorp/aws&quot;] (close)&#45;&gt;[root] aws_route_table_association.privet_route_subnet_1 (expand)</title>
<path fill="none" stroke="black" d="M1265.02,-504.68C1211.9,-494.29 1142.92,-480.8 1087.4,-469.95"/>
<polygon fill="black" stroke="black" points="1088.03,-466.5 1077.55,-468.02 1086.69,-473.37 1088.03,-466.5"/>
</g>
<!-- [root] provider[&quot;registry.terraform.io/hashicorp/aws&quot;] (close)&#45;&gt;[root] aws_route_table_association.privet_route_subnet_2 (expand) -->
<g id="edge47" class="edge">
<title>[root] provider[&quot;registry.terraform.io/hashicorp/aws&quot;] (close)&#45;&gt;[root] aws_route_table_association.privet_route_subnet_2 (expand)</title>
<path fill="none" stroke="black" d="M1358.88,-503.7C1363.76,-495.56 1369.69,-485.69 1375.08,-476.7"/>
<polygon fill="black" stroke="black" points="1378.09,-478.48 1380.24,-468.1 1372.09,-474.88 1378.09,-478.48"/>
</g>
<!-- [root] provider[&quot;registry.terraform.io/hashicorp/aws&quot;] (close)&#45;&gt;[root] aws_route_table_association.public_route_subnet_1 (expand) -->
<g id="edge48" class="edge">
<title>[root] provider[&quot;registry.terraform.io/hashicorp/aws&quot;] (close)&#45;&gt;[root] aws_route_table_association.public_route_subnet_1 (expand)</title>
<path fill="none" stroke="black" d="M1485.34,-506.08C1532.06,-497.96 1576.18,-485.8 1590.5,-468 1602.35,-453.27 1598.96,-379.27 1584.5,-360 1574.07,-346.1 1559.51,-335.84 1543.72,-328.28"/>
<polygon fill="black" stroke="black" points="1544.87,-324.96 1534.31,-324.13 1542.04,-331.36 1544.87,-324.96"/>
</g>
<!-- [root] provider[&quot;registry.terraform.io/hashicorp/aws&quot;] (close)&#45;&gt;[root] aws_route_table_association.public_route_subnet_2 (expand) -->
<g id="edge49" class="edge">
<title>[root] provider[&quot;registry.terraform.io/hashicorp/aws&quot;] (close)&#45;&gt;[root] aws_route_table_association.public_route_subnet_2 (expand)</title>
<path fill="none" stroke="black" d="M1433.61,-504.77C1484.26,-494.82 1549.72,-481.44 1607.5,-468 1806.57,-421.69 2039.4,-358.44 2153.77,-326.77"/>
<polygon fill="black" stroke="black" points="2154.76,-330.13 2163.47,-324.08 2152.89,-323.38 2154.76,-330.13"/>
</g>
<!-- [root] root -->
<g id="node31" class="node">
<title>[root] root</title>
<ellipse fill="none" stroke="black" cx="1080.5" cy="-594" rx="58.49" ry="18"/>
<text text-anchor="middle" x="1080.5" y="-590.3" font-family="Times,serif" font-size="14.00">[root] root</text>
</g>
<!-- [root] root&#45;&gt;[root] output.LB_IP (expand) -->
<g id="edge50" class="edge">
<title>[root] root&#45;&gt;[root] output.LB_IP (expand)</title>
<path fill="none" stroke="black" d="M1040.88,-580.73C1006.14,-569.97 955.11,-554.16 915.23,-541.81"/>
<polygon fill="black" stroke="black" points="916.19,-538.44 905.6,-538.83 914.12,-545.13 916.19,-538.44"/>
</g>
<!-- [root] root&#45;&gt;[root] provider[&quot;registry.terraform.io/hashicorp/aws&quot;] (close) -->
<g id="edge51" class="edge">
<title>[root] root&#45;&gt;[root] provider[&quot;registry.terraform.io/hashicorp/aws&quot;] (close)</title>
<path fill="none" stroke="black" d="M1123.56,-581.75C1164.39,-571.09 1226.57,-554.85 1275.21,-542.14"/>
<polygon fill="black" stroke="black" points="1276.26,-545.49 1285.05,-539.57 1274.49,-538.71 1276.26,-545.49"/>
</g>
</g>
</svg>
