<?xml version="1.0" encoding="UTF-8" standalone="no"?>
<!DOCTYPE svg PUBLIC "-//W3C//DTD SVG 1.1//EN"
 "http://www.w3.org/Graphics/SVG/1.1/DTD/svg11.dtd">
<!-- Generated by graphviz version 2.43.0 (0)
 -->
<!-- Title: %3 Pages: 1 -->
<svg width="2310pt" height="620pt"
 viewBox="0.00 0.00 2310.00 620.00" xmlns="http://www.w3.org/2000/svg" xmlns:xlink="http://www.w3.org/1999/xlink">
<g id="graph0" class="graph" transform="scale(1 1) rotate(0) translate(4 616)">
<title>%3</title>
<polygon fill="white" stroke="transparent" points="-4,4 -4,-616 2306,-616 2306,4 -4,4"/>
<!-- [root] aws_eip.Elastic_ip_for_Public_subnet_1 (expand) -->
<g id="node1" class="node">
<title>[root] aws_eip.Elastic_ip_for_Public_subnet_1 (expand)</title>
<polygon fill="none" stroke="black" points="1587.5,-252 1291.5,-252 1291.5,-216 1587.5,-216 1587.5,-252"/>
<text text-anchor="middle" x="1439.5" y="-230.3" font-family="Times,serif" font-size="14.00">aws_eip.Elastic_ip_for_Public_subnet_1</text>
</g>
<!-- [root] aws_internet_gateway.High_availability_gw (expand) -->
<g id="node3" class="node">
<title>[root] aws_internet_gateway.High_availability_gw (expand)</title>
<polygon fill="none" stroke="black" points="1602.5,-180 1276.5,-180 1276.5,-144 1602.5,-144 1602.5,-180"/>
<text text-anchor="middle" x="1439.5" y="-158.3" font-family="Times,serif" font-size="14.00">aws_internet_gateway.High_availability_gw</text>
</g>
<!-- [root] aws_eip.Elastic_ip_for_Public_subnet_1 (expand)&#45;&gt;[root] aws_internet_gateway.High_availability_gw (expand) -->
<g id="edge1" class="edge">
<title>[root] aws_eip.Elastic_ip_for_Public_subnet_1 (expand)&#45;&gt;[root] aws_internet_gateway.High_availability_gw (expand)</title>
<path fill="none" stroke="black" d="M1439.5,-215.7C1439.5,-207.98 1439.5,-198.71 1439.5,-190.11"/>
<polygon fill="black" stroke="black" points="1443,-190.1 1439.5,-180.1 1436,-190.1 1443,-190.1"/>
</g>
<!-- [root] aws_eip.Elastic_ip_for_Public_subnet_2 (expand) -->
<g id="node2" class="node">
<title>[root] aws_eip.Elastic_ip_for_Public_subnet_2 (expand)</title>
<polygon fill="none" stroke="black" points="1273.5,-252 977.5,-252 977.5,-216 1273.5,-216 1273.5,-252"/>
<text text-anchor="middle" x="1125.5" y="-230.3" font-family="Times,serif" font-size="14.00">aws_eip.Elastic_ip_for_Public_subnet_2</text>
</g>
<!-- [root] aws_eip.Elastic_ip_for_Public_subnet_2 (expand)&#45;&gt;[root] aws_internet_gateway.High_availability_gw (expand) -->
<g id="edge2" class="edge">
<title>[root] aws_eip.Elastic_ip_for_Public_subnet_2 (expand)&#45;&gt;[root] aws_internet_gateway.High_availability_gw (expand)</title>
<path fill="none" stroke="black" d="M1201.91,-215.97C1247.59,-205.78 1305.74,-192.82 1353.09,-182.26"/>
<polygon fill="black" stroke="black" points="1354.02,-185.64 1363.02,-180.05 1352.5,-178.81 1354.02,-185.64"/>
</g>
<!-- [root] aws_vpc.High_availability_vpc (expand) -->
<g id="node18" class="node">
<title>[root] aws_vpc.High_availability_vpc (expand)</title>
<polygon fill="none" stroke="black" points="755.5,-108 523.5,-108 523.5,-72 755.5,-72 755.5,-108"/>
<text text-anchor="middle" x="639.5" y="-86.3" font-family="Times,serif" font-size="14.00">aws_vpc.High_availability_vpc</text>
</g>
<!-- [root] aws_internet_gateway.High_availability_gw (expand)&#45;&gt;[root] aws_vpc.High_availability_vpc (expand) -->
<g id="edge3" class="edge">
<title>[root] aws_internet_gateway.High_availability_gw (expand)&#45;&gt;[root] aws_vpc.High_availability_vpc (expand)</title>
<path fill="none" stroke="black" d="M1276.16,-146.71C1125.13,-133.49 903.82,-114.13 765.88,-102.06"/>
<polygon fill="black" stroke="black" points="765.95,-98.55 755.68,-101.17 765.34,-105.52 765.95,-98.55"/>
</g>
<!-- [root] aws_nat_gateway.Nat_gateway_public_subnet_1 (expand) -->
<g id="node4" class="node">
<title>[root] aws_nat_gateway.Nat_gateway_public_subnet_1 (expand)</title>
<polygon fill="none" stroke="black" points="1184.5,-324 826.5,-324 826.5,-288 1184.5,-288 1184.5,-324"/>
<text text-anchor="middle" x="1005.5" y="-302.3" font-family="Times,serif" font-size="14.00">aws_nat_gateway.Nat_gateway_public_subnet_1</text>
</g>
<!-- [root] aws_nat_gateway.Nat_gateway_public_subnet_1 (expand)&#45;&gt;[root] aws_eip.Elastic_ip_for_Public_subnet_1 (expand) -->
<g id="edge4" class="edge">
<title>[root] aws_nat_gateway.Nat_gateway_public_subnet_1 (expand)&#45;&gt;[root] aws_eip.Elastic_ip_for_Public_subnet_1 (expand)</title>
<path fill="none" stroke="black" d="M1111.11,-287.97C1175.43,-277.59 1257.66,-264.33 1323.74,-253.67"/>
<polygon fill="black" stroke="black" points="1324.47,-257.1 1333.79,-252.05 1323.36,-250.19 1324.47,-257.1"/>
</g>
<!-- [root] aws_subnet.Public_subnet_1 (expand) -->
<g id="node16" class="node">
<title>[root] aws_subnet.Public_subnet_1 (expand)</title>
<polygon fill="none" stroke="black" points="959.5,-252 739.5,-252 739.5,-216 959.5,-216 959.5,-252"/>
<text text-anchor="middle" x="849.5" y="-230.3" font-family="Times,serif" font-size="14.00">aws_subnet.Public_subnet_1</text>
</g>
<!-- [root] aws_nat_gateway.Nat_gateway_public_subnet_1 (expand)&#45;&gt;[root] aws_subnet.Public_subnet_1 (expand) -->
<g id="edge5" class="edge">
<title>[root] aws_nat_gateway.Nat_gateway_public_subnet_1 (expand)&#45;&gt;[root] aws_subnet.Public_subnet_1 (expand)</title>
<path fill="none" stroke="black" d="M967.34,-287.88C946.11,-278.35 919.49,-266.41 896.93,-256.28"/>
<polygon fill="black" stroke="black" points="898.09,-252.97 887.54,-252.07 895.23,-259.36 898.09,-252.97"/>
</g>
<!-- [root] aws_nat_gateway.Nat_gateway_public_subnet_2 (expand) -->
<g id="node5" class="node">
<title>[root] aws_nat_gateway.Nat_gateway_public_subnet_2 (expand)</title>
<polygon fill="none" stroke="black" points="808.5,-324 450.5,-324 450.5,-288 808.5,-288 808.5,-324"/>
<text text-anchor="middle" x="629.5" y="-302.3" font-family="Times,serif" font-size="14.00">aws_nat_gateway.Nat_gateway_public_subnet_2</text>
</g>
<!-- [root] aws_nat_gateway.Nat_gateway_public_subnet_2 (expand)&#45;&gt;[root] aws_eip.Elastic_ip_for_Public_subnet_2 (expand) -->
<g id="edge6" class="edge">
<title>[root] aws_nat_gateway.Nat_gateway_public_subnet_2 (expand)&#45;&gt;[root] aws_eip.Elastic_ip_for_Public_subnet_2 (expand)</title>
<path fill="none" stroke="black" d="M750.2,-287.97C824.16,-277.53 918.84,-264.17 994.6,-253.47"/>
<polygon fill="black" stroke="black" points="995.28,-256.91 1004.69,-252.05 994.3,-249.98 995.28,-256.91"/>
</g>
<!-- [root] aws_subnet.Public_subnet_2 (expand) -->
<g id="node17" class="node">
<title>[root] aws_subnet.Public_subnet_2 (expand)</title>
<polygon fill="none" stroke="black" points="721.5,-252 501.5,-252 501.5,-216 721.5,-216 721.5,-252"/>
<text text-anchor="middle" x="611.5" y="-230.3" font-family="Times,serif" font-size="14.00">aws_subnet.Public_subnet_2</text>
</g>
<!-- [root] aws_nat_gateway.Nat_gateway_public_subnet_2 (expand)&#45;&gt;[root] aws_subnet.Public_subnet_2 (expand) -->
<g id="edge7" class="edge">
<title>[root] aws_nat_gateway.Nat_gateway_public_subnet_2 (expand)&#45;&gt;[root] aws_subnet.Public_subnet_2 (expand)</title>
<path fill="none" stroke="black" d="M625.05,-287.7C623.05,-279.9 620.63,-270.51 618.4,-261.83"/>
<polygon fill="black" stroke="black" points="621.78,-260.92 615.9,-252.1 615,-262.66 621.78,-260.92"/>
</g>
<!-- [root] aws_route_table.route_table_privet_subnet_1 (expand) -->
<g id="node6" class="node">
<title>[root] aws_route_table.route_table_privet_subnet_1 (expand)</title>
<polygon fill="none" stroke="black" points="1174.5,-396 836.5,-396 836.5,-360 1174.5,-360 1174.5,-396"/>
<text text-anchor="middle" x="1005.5" y="-374.3" font-family="Times,serif" font-size="14.00">aws_route_table.route_table_privet_subnet_1</text>
</g>
<!-- [root] aws_route_table.route_table_privet_subnet_1 (expand)&#45;&gt;[root] aws_nat_gateway.Nat_gateway_public_subnet_1 (expand) -->
<g id="edge8" class="edge">
<title>[root] aws_route_table.route_table_privet_subnet_1 (expand)&#45;&gt;[root] aws_nat_gateway.Nat_gateway_public_subnet_1 (expand)</title>
<path fill="none" stroke="black" d="M1005.5,-359.7C1005.5,-351.98 1005.5,-342.71 1005.5,-334.11"/>
<polygon fill="black" stroke="black" points="1009,-334.1 1005.5,-324.1 1002,-334.1 1009,-334.1"/>
</g>
<!-- [root] aws_route_table.route_table_privet_subnet_2 (expand) -->
<g id="node7" class="node">
<title>[root] aws_route_table.route_table_privet_subnet_2 (expand)</title>
<polygon fill="none" stroke="black" points="412.5,-396 74.5,-396 74.5,-360 412.5,-360 412.5,-396"/>
<text text-anchor="middle" x="243.5" y="-374.3" font-family="Times,serif" font-size="14.00">aws_route_table.route_table_privet_subnet_2</text>
</g>
<!-- [root] aws_route_table.route_table_privet_subnet_2 (expand)&#45;&gt;[root] aws_nat_gateway.Nat_gateway_public_subnet_2 (expand) -->
<g id="edge9" class="edge">
<title>[root] aws_route_table.route_table_privet_subnet_2 (expand)&#45;&gt;[root] aws_nat_gateway.Nat_gateway_public_subnet_2 (expand)</title>
<path fill="none" stroke="black" d="M337.43,-359.97C394.28,-349.66 466.87,-336.49 525.46,-325.87"/>
<polygon fill="black" stroke="black" points="526.27,-329.28 535.48,-324.05 525.02,-322.39 526.27,-329.28"/>
</g>
<!-- [root] aws_route_table.route_table_public_subnet_1 (expand) -->
<g id="node8" class="node">
<title>[root] aws_route_table.route_table_public_subnet_1 (expand)</title>
<polygon fill="none" stroke="black" points="2302,-252 1963,-252 1963,-216 2302,-216 2302,-252"/>
<text text-anchor="middle" x="2132.5" y="-230.3" font-family="Times,serif" font-size="14.00">aws_route_table.route_table_public_subnet_1</text>
</g>
<!-- [root] aws_route_table.route_table_public_subnet_1 (expand)&#45;&gt;[root] aws_internet_gateway.High_availability_gw (expand) -->
<g id="edge10" class="edge">
<title>[root] aws_route_table.route_table_public_subnet_1 (expand)&#45;&gt;[root] aws_internet_gateway.High_availability_gw (expand)</title>
<path fill="none" stroke="black" d="M1963.86,-215.97C1857.31,-205.2 1719.97,-191.33 1612.58,-180.48"/>
<polygon fill="black" stroke="black" points="1612.92,-177 1602.61,-179.48 1612.21,-183.96 1612.92,-177"/>
</g>
<!-- [root] aws_route_table.route_table_public_subnet_2 (expand) -->
<g id="node9" class="node">
<title>[root] aws_route_table.route_table_public_subnet_2 (expand)</title>
<polygon fill="none" stroke="black" points="1945,-252 1606,-252 1606,-216 1945,-216 1945,-252"/>
<text text-anchor="middle" x="1775.5" y="-230.3" font-family="Times,serif" font-size="14.00">aws_route_table.route_table_public_subnet_2</text>
</g>
<!-- [root] aws_route_table.route_table_public_subnet_2 (expand)&#45;&gt;[root] aws_internet_gateway.High_availability_gw (expand) -->
<g id="edge11" class="edge">
<title>[root] aws_route_table.route_table_public_subnet_2 (expand)&#45;&gt;[root] aws_internet_gateway.High_availability_gw (expand)</title>
<path fill="none" stroke="black" d="M1693.73,-215.97C1644.66,-205.74 1582.11,-192.71 1531.33,-182.13"/>
<polygon fill="black" stroke="black" points="1531.84,-178.66 1521.34,-180.05 1530.42,-185.52 1531.84,-178.66"/>
</g>
<!-- [root] aws_route_table_association.privet_route_subnet_1 (expand) -->
<g id="node10" class="node">
<title>[root] aws_route_table_association.privet_route_subnet_1 (expand)</title>
<polygon fill="none" stroke="black" points="1196.5,-468 814.5,-468 814.5,-432 1196.5,-432 1196.5,-468"/>
<text text-anchor="middle" x="1005.5" y="-446.3" font-family="Times,serif" font-size="14.00">aws_route_table_association.privet_route_subnet_1</text>
</g>
<!-- [root] aws_route_table_association.privet_route_subnet_1 (expand)&#45;&gt;[root] aws_route_table.route_table_privet_subnet_1 (expand) -->
<g id="edge12" class="edge">
<title>[root] aws_route_table_association.privet_route_subnet_1 (expand)&#45;&gt;[root] aws_route_table.route_table_privet_subnet_1 (expand)</title>
<path fill="none" stroke="black" d="M1005.5,-431.7C1005.5,-423.98 1005.5,-414.71 1005.5,-406.11"/>
<polygon fill="black" stroke="black" points="1009,-406.1 1005.5,-396.1 1002,-406.1 1009,-406.1"/>
</g>
<!-- [root] aws_subnet.Privet_subnet_1 (expand) -->
<g id="node14" class="node">
<title>[root] aws_subnet.Privet_subnet_1 (expand)</title>
<polygon fill="none" stroke="black" points="483,-252 264,-252 264,-216 483,-216 483,-252"/>
<text text-anchor="middle" x="373.5" y="-230.3" font-family="Times,serif" font-size="14.00">aws_subnet.Privet_subnet_1</text>
</g>
<!-- [root] aws_route_table_association.privet_route_subnet_1 (expand)&#45;&gt;[root] aws_subnet.Privet_subnet_1 (expand) -->
<g id="edge13" class="edge">
<title>[root] aws_route_table_association.privet_route_subnet_1 (expand)&#45;&gt;[root] aws_subnet.Privet_subnet_1 (expand)</title>
<path fill="none" stroke="black" d="M814.27,-439.46C698.71,-426.07 552.77,-395.04 441.5,-324 417.2,-308.48 398.23,-281.08 386.58,-260.77"/>
<polygon fill="black" stroke="black" points="389.64,-259.07 381.74,-252 383.51,-262.45 389.64,-259.07"/>
</g>
<!-- [root] aws_route_table_association.privet_route_subnet_2 (expand) -->
<g id="node11" class="node">
<title>[root] aws_route_table_association.privet_route_subnet_2 (expand)</title>
<polygon fill="none" stroke="black" points="434.5,-468 52.5,-468 52.5,-432 434.5,-432 434.5,-468"/>
<text text-anchor="middle" x="243.5" y="-446.3" font-family="Times,serif" font-size="14.00">aws_route_table_association.privet_route_subnet_2</text>
</g>
<!-- [root] aws_route_table_association.privet_route_subnet_2 (expand)&#45;&gt;[root] aws_route_table.route_table_privet_subnet_2 (expand) -->
<g id="edge14" class="edge">
<title>[root] aws_route_table_association.privet_route_subnet_2 (expand)&#45;&gt;[root] aws_route_table.route_table_privet_subnet_2 (expand)</title>
<path fill="none" stroke="black" d="M243.5,-431.7C243.5,-423.98 243.5,-414.71 243.5,-406.11"/>
<polygon fill="black" stroke="black" points="247,-406.1 243.5,-396.1 240,-406.1 247,-406.1"/>
</g>
<!-- [root] aws_subnet.Privet_subnet_2 (expand) -->
<g id="node15" class="node">
<title>[root] aws_subnet.Privet_subnet_2 (expand)</title>
<polygon fill="none" stroke="black" points="219,-252 0,-252 0,-216 219,-216 219,-252"/>
<text text-anchor="middle" x="109.5" y="-230.3" font-family="Times,serif" font-size="14.00">aws_subnet.Privet_subnet_2</text>
</g>
<!-- [root] aws_route_table_association.privet_route_subnet_2 (expand)&#45;&gt;[root] aws_subnet.Privet_subnet_2 (expand) -->
<g id="edge15" class="edge">
<title>[root] aws_route_table_association.privet_route_subnet_2 (expand)&#45;&gt;[root] aws_subnet.Privet_subnet_2 (expand)</title>
<path fill="none" stroke="black" d="M150.59,-431.89C113.31,-422.96 76.53,-410.8 65.5,-396 35.13,-355.27 67,-294.81 90.1,-260.75"/>
<polygon fill="black" stroke="black" points="93.16,-262.48 96.03,-252.29 87.43,-258.47 93.16,-262.48"/>
</g>
<!-- [root] aws_route_table_association.public_route_subnet_1 (expand) -->
<g id="node12" class="node">
<title>[root] aws_route_table_association.public_route_subnet_1 (expand)</title>
<polygon fill="none" stroke="black" points="1987,-324 1604,-324 1604,-288 1987,-288 1987,-324"/>
<text text-anchor="middle" x="1795.5" y="-302.3" font-family="Times,serif" font-size="14.00">aws_route_table_association.public_route_subnet_1</text>
</g>
<!-- [root] aws_route_table_association.public_route_subnet_1 (expand)&#45;&gt;[root] aws_route_table.route_table_public_subnet_1 (expand) -->
<g id="edge16" class="edge">
<title>[root] aws_route_table_association.public_route_subnet_1 (expand)&#45;&gt;[root] aws_route_table.route_table_public_subnet_1 (expand)</title>
<path fill="none" stroke="black" d="M1877.51,-287.97C1926.73,-277.74 1989.47,-264.71 2040.4,-254.13"/>
<polygon fill="black" stroke="black" points="2041.34,-257.51 2050.42,-252.05 2039.91,-250.66 2041.34,-257.51"/>
</g>
<!-- [root] aws_route_table_association.public_route_subnet_1 (expand)&#45;&gt;[root] aws_subnet.Public_subnet_1 (expand) -->
<g id="edge17" class="edge">
<title>[root] aws_route_table_association.public_route_subnet_1 (expand)&#45;&gt;[root] aws_subnet.Public_subnet_1 (expand)</title>
<path fill="none" stroke="black" d="M1603.74,-288.67C1600.64,-288.44 1597.56,-288.22 1594.5,-288 1319.78,-268.49 1247.48,-279.47 969.65,-252.06"/>
<polygon fill="black" stroke="black" points="969.97,-248.58 959.68,-251.07 969.28,-255.55 969.97,-248.58"/>
</g>
<!-- [root] aws_route_table_association.public_route_subnet_2 (expand) -->
<g id="node13" class="node">
<title>[root] aws_route_table_association.public_route_subnet_2 (expand)</title>
<polygon fill="none" stroke="black" points="1586,-324 1203,-324 1203,-288 1586,-288 1586,-324"/>
<text text-anchor="middle" x="1394.5" y="-302.3" font-family="Times,serif" font-size="14.00">aws_route_table_association.public_route_subnet_2</text>
</g>
<!-- [root] aws_route_table_association.public_route_subnet_2 (expand)&#45;&gt;[root] aws_route_table.route_table_public_subnet_2 (expand) -->
<g id="edge18" class="edge">
<title>[root] aws_route_table_association.public_route_subnet_2 (expand)&#45;&gt;[root] aws_route_table.route_table_public_subnet_2 (expand)</title>
<path fill="none" stroke="black" d="M1487.22,-287.97C1543.33,-277.66 1614.98,-264.49 1672.81,-253.87"/>
<polygon fill="black" stroke="black" points="1673.5,-257.3 1682.7,-252.05 1672.23,-250.41 1673.5,-257.3"/>
</g>
<!-- [root] aws_route_table_association.public_route_subnet_2 (expand)&#45;&gt;[root] aws_subnet.Public_subnet_2 (expand) -->
<g id="edge19" class="edge">
<title>[root] aws_route_table_association.public_route_subnet_2 (expand)&#45;&gt;[root] aws_subnet.Public_subnet_2 (expand)</title>
<path fill="none" stroke="black" d="M1202.74,-288.75C1199.63,-288.5 1196.55,-288.25 1193.5,-288 991.09,-271.57 937.38,-274.51 731.9,-252.12"/>
<polygon fill="black" stroke="black" points="732.01,-248.61 721.69,-251 731.24,-255.56 732.01,-248.61"/>
</g>
<!-- [root] aws_subnet.Privet_subnet_1 (expand)&#45;&gt;[root] aws_vpc.High_availability_vpc (expand) -->
<g id="edge20" class="edge">
<title>[root] aws_subnet.Privet_subnet_1 (expand)&#45;&gt;[root] aws_vpc.High_availability_vpc (expand)</title>
<path fill="none" stroke="black" d="M372.05,-215.69C371.39,-195.63 373.63,-162.89 392.5,-144 410.3,-126.18 461.84,-113.68 513.27,-105.32"/>
<polygon fill="black" stroke="black" points="513.87,-108.77 523.2,-103.75 512.78,-101.85 513.87,-108.77"/>
</g>
<!-- [root] var.Privet_subnets_cidr_blocks -->
<g id="node20" class="node">
<title>[root] var.Privet_subnets_cidr_blocks</title>
<polygon fill="none" stroke="black" points="339.5,-180 109.5,-180 109.5,-144 345.5,-144 345.5,-174 339.5,-180"/>
<polyline fill="none" stroke="black" points="339.5,-180 339.5,-174 "/>
<polyline fill="none" stroke="black" points="345.5,-174 339.5,-174 "/>
<text text-anchor="middle" x="227.5" y="-158.3" font-family="Times,serif" font-size="14.00">var.Privet_subnets_cidr_blocks</text>
</g>
<!-- [root] aws_subnet.Privet_subnet_1 (expand)&#45;&gt;[root] var.Privet_subnets_cidr_blocks -->
<g id="edge21" class="edge">
<title>[root] aws_subnet.Privet_subnet_1 (expand)&#45;&gt;[root] var.Privet_subnets_cidr_blocks</title>
<path fill="none" stroke="black" d="M337.78,-215.88C318,-206.39 293.23,-194.51 272.17,-184.42"/>
<polygon fill="black" stroke="black" points="273.63,-181.24 263.1,-180.07 270.6,-187.55 273.63,-181.24"/>
</g>
<!-- [root] var.east_Availability_Zones -->
<g id="node21" class="node">
<title>[root] var.east_Availability_Zones</title>
<polygon fill="none" stroke="black" points="605,-180 402,-180 402,-144 611,-144 611,-174 605,-180"/>
<polyline fill="none" stroke="black" points="605,-180 605,-174 "/>
<polyline fill="none" stroke="black" points="611,-174 605,-174 "/>
<text text-anchor="middle" x="506.5" y="-158.3" font-family="Times,serif" font-size="14.00">var.east_Availability_Zones</text>
</g>
<!-- [root] aws_subnet.Privet_subnet_1 (expand)&#45;&gt;[root] var.east_Availability_Zones -->
<g id="edge22" class="edge">
<title>[root] aws_subnet.Privet_subnet_1 (expand)&#45;&gt;[root] var.east_Availability_Zones</title>
<path fill="none" stroke="black" d="M406.04,-215.88C423.75,-206.55 445.85,-194.92 464.82,-184.94"/>
<polygon fill="black" stroke="black" points="466.62,-187.94 473.84,-180.19 463.36,-181.75 466.62,-187.94"/>
</g>
<!-- [root] aws_subnet.Privet_subnet_2 (expand)&#45;&gt;[root] aws_vpc.High_availability_vpc (expand) -->
<g id="edge23" class="edge">
<title>[root] aws_subnet.Privet_subnet_2 (expand)&#45;&gt;[root] aws_vpc.High_availability_vpc (expand)</title>
<path fill="none" stroke="black" d="M100.98,-215.89C92.44,-196 82.87,-163.45 100.5,-144 127.7,-113.99 362.43,-100.37 513.02,-94.67"/>
<polygon fill="black" stroke="black" points="513.4,-98.16 523.27,-94.29 513.14,-91.16 513.4,-98.16"/>
</g>
<!-- [root] aws_subnet.Privet_subnet_2 (expand)&#45;&gt;[root] var.Privet_subnets_cidr_blocks -->
<g id="edge24" class="edge">
<title>[root] aws_subnet.Privet_subnet_2 (expand)&#45;&gt;[root] var.Privet_subnets_cidr_blocks</title>
<path fill="none" stroke="black" d="M138.37,-215.88C153.79,-206.72 172.98,-195.34 189.6,-185.48"/>
<polygon fill="black" stroke="black" points="191.71,-188.3 198.52,-180.19 188.14,-182.28 191.71,-188.3"/>
</g>
<!-- [root] aws_subnet.Privet_subnet_2 (expand)&#45;&gt;[root] var.east_Availability_Zones -->
<g id="edge25" class="edge">
<title>[root] aws_subnet.Privet_subnet_2 (expand)&#45;&gt;[root] var.east_Availability_Zones</title>
<path fill="none" stroke="black" d="M206.11,-215.97C264.7,-205.63 339.55,-192.44 399.87,-181.8"/>
<polygon fill="black" stroke="black" points="400.56,-185.23 409.8,-180.05 399.35,-178.34 400.56,-185.23"/>
</g>
<!-- [root] aws_subnet.Public_subnet_1 (expand)&#45;&gt;[root] aws_vpc.High_availability_vpc (expand) -->
<g id="edge26" class="edge">
<title>[root] aws_subnet.Public_subnet_1 (expand)&#45;&gt;[root] aws_vpc.High_availability_vpc (expand)</title>
<path fill="none" stroke="black" d="M879.8,-215.8C892.38,-206.9 905.62,-194.77 912.5,-180 919.25,-165.49 922.68,-156.34 912.5,-144 893.33,-120.75 827.97,-107.58 766.01,-100.18"/>
<polygon fill="black" stroke="black" points="766.04,-96.66 755.7,-98.99 765.24,-103.61 766.04,-96.66"/>
</g>
<!-- [root] aws_subnet.Public_subnet_1 (expand)&#45;&gt;[root] var.east_Availability_Zones -->
<g id="edge27" class="edge">
<title>[root] aws_subnet.Public_subnet_1 (expand)&#45;&gt;[root] var.east_Availability_Zones</title>
<path fill="none" stroke="black" d="M766.03,-215.97C715.83,-205.72 651.81,-192.66 599.92,-182.07"/>
<polygon fill="black" stroke="black" points="600.54,-178.62 590.05,-180.05 599.14,-185.48 600.54,-178.62"/>
</g>
<!-- [root] var.public_subnets_cidr_blocks -->
<g id="node22" class="node">
<title>[root] var.public_subnets_cidr_blocks</title>
<polygon fill="none" stroke="black" points="897.5,-180 667.5,-180 667.5,-144 903.5,-144 903.5,-174 897.5,-180"/>
<polyline fill="none" stroke="black" points="897.5,-180 897.5,-174 "/>
<polyline fill="none" stroke="black" points="903.5,-174 897.5,-174 "/>
<text text-anchor="middle" x="785.5" y="-158.3" font-family="Times,serif" font-size="14.00">var.public_subnets_cidr_blocks</text>
</g>
<!-- [root] aws_subnet.Public_subnet_1 (expand)&#45;&gt;[root] var.public_subnets_cidr_blocks -->
<g id="edge28" class="edge">
<title>[root] aws_subnet.Public_subnet_1 (expand)&#45;&gt;[root] var.public_subnets_cidr_blocks</title>
<path fill="none" stroke="black" d="M833.68,-215.7C825.93,-207.22 816.46,-196.86 807.98,-187.58"/>
<polygon fill="black" stroke="black" points="810.47,-185.12 801.14,-180.1 805.3,-189.85 810.47,-185.12"/>
</g>
<!-- [root] aws_subnet.Public_subnet_2 (expand)&#45;&gt;[root] aws_vpc.High_availability_vpc (expand) -->
<g id="edge29" class="edge">
<title>[root] aws_subnet.Public_subnet_2 (expand)&#45;&gt;[root] aws_vpc.High_availability_vpc (expand)</title>
<path fill="none" stroke="black" d="M614.88,-215.87C619.67,-191.56 628.49,-146.82 634.17,-118.01"/>
<polygon fill="black" stroke="black" points="637.61,-118.68 636.11,-108.19 630.74,-117.32 637.61,-118.68"/>
</g>
<!-- [root] aws_subnet.Public_subnet_2 (expand)&#45;&gt;[root] var.east_Availability_Zones -->
<g id="edge30" class="edge">
<title>[root] aws_subnet.Public_subnet_2 (expand)&#45;&gt;[root] var.east_Availability_Zones</title>
<path fill="none" stroke="black" d="M585.81,-215.88C572.21,-206.81 555.33,-195.55 540.64,-185.76"/>
<polygon fill="black" stroke="black" points="542.55,-182.82 532.28,-180.19 538.66,-188.65 542.55,-182.82"/>
</g>
<!-- [root] aws_subnet.Public_subnet_2 (expand)&#45;&gt;[root] var.public_subnets_cidr_blocks -->
<g id="edge31" class="edge">
<title>[root] aws_subnet.Public_subnet_2 (expand)&#45;&gt;[root] var.public_subnets_cidr_blocks</title>
<path fill="none" stroke="black" d="M654.07,-215.88C678.06,-206.22 708.23,-194.09 733.6,-183.88"/>
<polygon fill="black" stroke="black" points="735.1,-187.05 743.07,-180.07 732.49,-180.55 735.1,-187.05"/>
</g>
<!-- [root] provider[&quot;registry.terraform.io/hashicorp/aws&quot;] -->
<g id="node19" class="node">
<title>[root] provider[&quot;registry.terraform.io/hashicorp/aws&quot;]</title>
<polygon fill="none" stroke="black" points="431.5,-36 106.24,-18 431.5,0 756.76,-18 431.5,-36"/>
<text text-anchor="middle" x="431.5" y="-14.3" font-family="Times,serif" font-size="14.00">provider[&quot;registry.terraform.io/hashicorp/aws&quot;]</text>
</g>
<!-- [root] aws_vpc.High_availability_vpc (expand)&#45;&gt;[root] provider[&quot;registry.terraform.io/hashicorp/aws&quot;] -->
<g id="edge32" class="edge">
<title>[root] aws_vpc.High_availability_vpc (expand)&#45;&gt;[root] provider[&quot;registry.terraform.io/hashicorp/aws&quot;]</title>
<path fill="none" stroke="black" d="M588.88,-71.97C557.28,-61.33 516.65,-47.66 484.59,-36.87"/>
<polygon fill="black" stroke="black" points="485.53,-33.49 474.94,-33.62 483.3,-40.13 485.53,-33.49"/>
</g>
<!-- [root] var.vpc_cidr_block -->
<g id="node23" class="node">
<title>[root] var.vpc_cidr_block</title>
<polygon fill="none" stroke="black" points="914.5,-36 774.5,-36 774.5,0 920.5,0 920.5,-30 914.5,-36"/>
<polyline fill="none" stroke="black" points="914.5,-36 914.5,-30 "/>
<polyline fill="none" stroke="black" points="920.5,-30 914.5,-30 "/>
<text text-anchor="middle" x="847.5" y="-14.3" font-family="Times,serif" font-size="14.00">var.vpc_cidr_block</text>
</g>
<!-- [root] aws_vpc.High_availability_vpc (expand)&#45;&gt;[root] var.vpc_cidr_block -->
<g id="edge33" class="edge">
<title>[root] aws_vpc.High_availability_vpc (expand)&#45;&gt;[root] var.vpc_cidr_block</title>
<path fill="none" stroke="black" d="M690.12,-71.97C719.31,-62.14 756.19,-49.73 786.92,-39.39"/>
<polygon fill="black" stroke="black" points="788.3,-42.62 796.66,-36.11 786.06,-35.98 788.3,-42.62"/>
</g>
<!-- [root] provider[&quot;registry.terraform.io/hashicorp/aws&quot;] (close) -->
<g id="node24" class="node">
<title>[root] provider[&quot;registry.terraform.io/hashicorp/aws&quot;] (close)</title>
<ellipse fill="none" stroke="black" cx="1114.5" cy="-522" rx="291.65" ry="18"/>
<text text-anchor="middle" x="1114.5" y="-518.3" font-family="Times,serif" font-size="14.00">[root] provider[&quot;registry.terraform.io/hashicorp/aws&quot;] (close)</text>
</g>
<!-- [root] provider[&quot;registry.terraform.io/hashicorp/aws&quot;] (close)&#45;&gt;[root] aws_route_table_association.privet_route_subnet_1 (expand) -->
<g id="edge34" class="edge">
<title>[root] provider[&quot;registry.terraform.io/hashicorp/aws&quot;] (close)&#45;&gt;[root] aws_route_table_association.privet_route_subnet_1 (expand)</title>
<path fill="none" stroke="black" d="M1088.11,-504.05C1073.89,-494.92 1056.16,-483.53 1040.77,-473.65"/>
<polygon fill="black" stroke="black" points="1042.33,-470.49 1032.02,-468.03 1038.54,-476.38 1042.33,-470.49"/>
</g>
<!-- [root] provider[&quot;registry.terraform.io/hashicorp/aws&quot;] (close)&#45;&gt;[root] aws_route_table_association.privet_route_subnet_2 (expand) -->
<g id="edge35" class="edge">
<title>[root] provider[&quot;registry.terraform.io/hashicorp/aws&quot;] (close)&#45;&gt;[root] aws_route_table_association.privet_route_subnet_2 (expand)</title>
<path fill="none" stroke="black" d="M944.75,-507.36C801.65,-495.86 596.57,-479.38 445.13,-467.2"/>
<polygon fill="black" stroke="black" points="445.02,-463.68 434.77,-466.37 444.46,-470.66 445.02,-463.68"/>
</g>
<!-- [root] provider[&quot;registry.terraform.io/hashicorp/aws&quot;] (close)&#45;&gt;[root] aws_route_table_association.public_route_subnet_1 (expand) -->
<g id="edge36" class="edge">
<title>[root] provider[&quot;registry.terraform.io/hashicorp/aws&quot;] (close)&#45;&gt;[root] aws_route_table_association.public_route_subnet_1 (expand)</title>
<path fill="none" stroke="black" d="M1167.65,-504.3C1291.34,-465.43 1598.03,-369.06 1731.61,-327.08"/>
<polygon fill="black" stroke="black" points="1732.82,-330.37 1741.31,-324.03 1730.72,-323.69 1732.82,-330.37"/>
</g>
<!-- [root] provider[&quot;registry.terraform.io/hashicorp/aws&quot;] (close)&#45;&gt;[root] aws_route_table_association.public_route_subnet_2 (expand) -->
<g id="edge37" class="edge">
<title>[root] provider[&quot;registry.terraform.io/hashicorp/aws&quot;] (close)&#45;&gt;[root] aws_route_table_association.public_route_subnet_2 (expand)</title>
<path fill="none" stroke="black" d="M1146.95,-503.95C1164.72,-494.16 1186.85,-481.21 1205.5,-468 1267.62,-423.98 1334,-364.05 1369.18,-331.13"/>
<polygon fill="black" stroke="black" points="1371.73,-333.54 1376.61,-324.14 1366.93,-328.44 1371.73,-333.54"/>
</g>
<!-- [root] root -->
<g id="node25" class="node">
<title>[root] root</title>
<ellipse fill="none" stroke="black" cx="1114.5" cy="-594" rx="58.49" ry="18"/>
<text text-anchor="middle" x="1114.5" y="-590.3" font-family="Times,serif" font-size="14.00">[root] root</text>
</g>
<!-- [root] root&#45;&gt;[root] provider[&quot;registry.terraform.io/hashicorp/aws&quot;] (close) -->
<g id="edge38" class="edge">
<title>[root] root&#45;&gt;[root] provider[&quot;registry.terraform.io/hashicorp/aws&quot;] (close)</title>
<path fill="none" stroke="black" d="M1114.5,-575.7C1114.5,-567.98 1114.5,-558.71 1114.5,-550.11"/>
<polygon fill="black" stroke="black" points="1118,-550.1 1114.5,-540.1 1111,-550.1 1118,-550.1"/>
</g>
</g>
</svg>
